<svg width="16" height="18" viewBox="0 0 16 18" fill="none" xmlns="http://www.w3.org/2000/svg">
<path d="M2.66604 11.4067H0.533215C0.238758 11.4067 0 11.1323 0 10.7937V0.985939C0 0.647418 0.238723 0.372932 0.533215 0.372932H2.666C2.96046 0.372932 3.19922 0.647378 3.19922 0.985939V10.7938C3.19922 11.1323 2.96053 11.4067 2.66604 11.4067Z" fill="#313131"/>
<path d="M15.9854 9.78181C15.8913 10.7327 15.1187 11.4067 14.2862 11.4067H10.1293C10.4825 12.134 10.6722 14.1909 10.6637 15.0312C10.6498 16.422 9.6479 17.5366 8.43804 17.5366H7.99806C7.70335 17.5366 7.46484 17.2625 7.46484 16.9236C7.46484 15.5061 6.98474 12.9475 6.07927 11.9065C5.46981 11.2059 4.9488 10.952 4.26562 10.5595V1.36159C5.31159 0.960787 6.63962 0.372862 8.66382 0.372862H12.1517C13.301 0.372862 14.1961 1.59655 13.7508 2.88946C14.4292 3.10195 14.9296 3.81733 14.9296 4.66379C14.9296 4.90267 14.8895 5.13132 14.8171 5.34144C15.9605 5.69958 16.3814 7.32265 15.5878 8.34176C15.8794 8.71621 16.0401 9.22839 15.9854 9.78181Z" fill="#313131"/>
</svg>
