<svg width="16" height="18" viewBox="0 0 16 18" fill="none" xmlns="http://www.w3.org/2000/svg">
<path d="M2.66604 6.49561H0.533215C0.238758 6.49561 0 6.77005 0 7.10861V16.9164C0 17.2549 0.238723 17.5294 0.533215 17.5294H2.666C2.96046 17.5294 3.19922 17.255 3.19922 16.9164V7.10857C3.19922 6.77005 2.96053 6.49561 2.66604 6.49561Z" fill="#313131"/>
<path d="M15.9854 8.12053C15.8913 7.16962 15.1187 6.49563 14.2862 6.49563H10.1293C10.4825 5.76839 10.6722 3.71145 10.6637 2.87118C10.6498 1.48031 9.6479 0.365723 8.43804 0.365723H7.99806C7.70335 0.365723 7.46484 0.639883 7.46484 0.97873C7.46484 2.39623 6.98474 4.95479 6.07927 5.99581C5.46981 6.69646 4.9488 6.95035 4.26562 7.34287V16.5408C5.31159 16.9416 6.63962 17.5295 8.66382 17.5295H12.1517C13.301 17.5295 14.1961 16.3058 13.7508 15.0129C14.4292 14.8004 14.9296 14.085 14.9296 13.2386C14.9296 12.9997 14.8895 12.771 14.8171 12.5609C15.9605 12.2028 16.3814 10.5797 15.5878 9.56059C15.8794 9.18614 16.0401 8.67395 15.9854 8.12053Z" fill="#313131"/>
</svg>
