<svg width="24" height="25" viewBox="0 0 24 25" fill="none" xmlns="http://www.w3.org/2000/svg">
<mask id="mask0_1595_5183" style="mask-type:alpha" maskUnits="userSpaceOnUse" x="0" y="0" width="24" height="25">
<rect y="0.192383" width="24" height="24" fill="#D9D9D9"/>
</mask>
<g mask="url(#mask0_1595_5183)">
<path d="M12 17.1924C12.2833 17.1924 12.5208 17.0965 12.7125 16.9049C12.9042 16.7132 13 16.4757 13 16.1924C13 15.909 12.9042 15.6715 12.7125 15.4799C12.5208 15.2882 12.2833 15.1924 12 15.1924C11.7167 15.1924 11.4792 15.2882 11.2875 15.4799C11.0958 15.6715 11 15.909 11 16.1924C11 16.4757 11.0958 16.7132 11.2875 16.9049C11.4792 17.0965 11.7167 17.1924 12 17.1924ZM12 13.1924C12.2833 13.1924 12.5208 13.0965 12.7125 12.9049C12.9042 12.7132 13 12.4757 13 12.1924C13 11.909 12.9042 11.6715 12.7125 11.4799C12.5208 11.2882 12.2833 11.1924 12 11.1924C11.7167 11.1924 11.4792 11.2882 11.2875 11.4799C11.0958 11.6715 11 11.909 11 12.1924C11 12.4757 11.0958 12.7132 11.2875 12.9049C11.4792 13.0965 11.7167 13.1924 12 13.1924ZM12 9.19238C12.2833 9.19238 12.5208 9.09655 12.7125 8.90488C12.9042 8.71322 13 8.47572 13 8.19238C13 7.90905 12.9042 7.67155 12.7125 7.47988C12.5208 7.28822 12.2833 7.19238 12 7.19238C11.7167 7.19238 11.4792 7.28822 11.2875 7.47988C11.0958 7.67155 11 7.90905 11 8.19238C11 8.47572 11.0958 8.71322 11.2875 8.90488C11.4792 9.09655 11.7167 9.19238 12 9.19238ZM20 20.1924H4C3.45 20.1924 2.97917 19.9965 2.5875 19.6049C2.19583 19.2132 2 18.7424 2 18.1924V14.1924C2.55 14.1924 3.02083 13.9965 3.4125 13.6049C3.80417 13.2132 4 12.7424 4 12.1924C4 11.6424 3.80417 11.1715 3.4125 10.7799C3.02083 10.3882 2.55 10.1924 2 10.1924V6.19238C2 5.64238 2.19583 5.17155 2.5875 4.77988C2.97917 4.38822 3.45 4.19238 4 4.19238H20C20.55 4.19238 21.0208 4.38822 21.4125 4.77988C21.8042 5.17155 22 5.64238 22 6.19238V10.1924C21.45 10.1924 20.9792 10.3882 20.5875 10.7799C20.1958 11.1715 20 11.6424 20 12.1924C20 12.7424 20.1958 13.2132 20.5875 13.6049C20.9792 13.9965 21.45 14.1924 22 14.1924V18.1924C22 18.7424 21.8042 19.2132 21.4125 19.6049C21.0208 19.9965 20.55 20.1924 20 20.1924ZM20 18.1924V15.6424C19.3833 15.2757 18.8958 14.7882 18.5375 14.1799C18.1792 13.5715 18 12.909 18 12.1924C18 11.4757 18.1792 10.8132 18.5375 10.2049C18.8958 9.59655 19.3833 9.10905 20 8.74238V6.19238H4V8.74238C4.61667 9.10905 5.10417 9.59655 5.4625 10.2049C5.82083 10.8132 6 11.4757 6 12.1924C6 12.909 5.82083 13.5715 5.4625 14.1799C5.10417 14.7882 4.61667 15.2757 4 15.6424V18.1924H20Z" fill="#CACACA"/>
</g>
</svg>
