<svg width="24" height="24" viewBox="0 0 24 24" fill="none" xmlns="http://www.w3.org/2000/svg">
<mask id="mask0_1730_5175" style="mask-type:alpha" maskUnits="userSpaceOnUse" x="0" y="0" width="24" height="24">
<rect width="24" height="24" fill="#D9D9D9"/>
</mask>
<g mask="url(#mask0_1730_5175)">
<path d="M16.65 13.0002L11 7.3502L16.65 1.7002L22.3 7.3502L16.65 13.0002ZM3 11.0002V3.0002H11V11.0002H3ZM13 21.0002V13.0002H21V21.0002H13ZM3 21.0002V13.0002H11V21.0002H3ZM5 9.0002H9V5.0002H5V9.0002ZM16.675 10.2002L19.5 7.3752L16.675 4.5502L13.85 7.3752L16.675 10.2002ZM15 19.0002H19V15.0002H15V19.0002ZM5 19.0002H9V15.0002H5V19.0002Z" fill="#1C1B1F"/>
</g>
</svg>
